HIERARCHY
ROOT hip
{
  OFFSET 0 0 0
  CHANNELS 6 Xposition Yposition Zposition Zrotation Yrotation Xrotation
  JOINT abdomen
  {
    OFFSET 0 20.6881 -0.73152
    CHANNELS 3 Zrotation Xrotation Yrotation
    JOINT chest
    {
      OFFSET 0 11.7043 -0.48768
      CHANNELS 3 Zrotation Xrotation Yrotation
      JOINT neck
      {
        OFFSET 0 22.1894 -2.19456
        CHANNELS 3 Zrotation Xrotation Yrotation
        JOINT head
        {
          OFFSET -0.24384 7.07133 1.2192
          CHANNELS 3 Zrotation Xrotation Yrotation
          JOINT leftEye
          {
            OFFSET 4.14528 8.04674 8.04672
            CHANNELS 3 Zrotation Xrotation Yrotation
            End Site
            {
              OFFSET 1 0 0
            }
          }
          JOINT rightEye
          {
            OFFSET -3.6576 8.04674 8.04672
            CHANNELS 3 Zrotation Xrotation Yrotation
            End Site
            {
              OFFSET 1 0 0
            }
          }
        }
      }
      JOINT rCollar
      {
        OFFSET -2.68224 19.2634 -4.8768
        CHANNELS 3 Zrotation Xrotation Yrotation
        JOINT rShldr
        {
          OFFSET -8.77824 -1.95073 1.46304
          CHANNELS 3 Zrotation Xrotation Yrotation
          JOINT rForeArm
          {
            OFFSET -28.1742 -1.7115 0.48768
            CHANNELS 3 Zrotation Xrotation Yrotation
            JOINT rHand
            {
              OFFSET -22.5879 0.773209 7.07136
              CHANNELS 3 Zrotation Xrotation Yrotation
              JOINT rThumb1
              {
                OFFSET -1.2192 -0.487915 3.41376
                CHANNELS 3 Zrotation Xrotation Yrotation
                JOINT rThumb2
                {
                  OFFSET -3.37035 -0.52449 3.41376
                  CHANNELS 3 Zrotation Xrotation Yrotation
                  End Site
                  {
                    OFFSET -1.78271 -1.18214 1.43049
                  }
                }
              }
              JOINT rIndex1
              {
                OFFSET -7.75947 0.938293 5.60832
                CHANNELS 3 Zrotation Xrotation Yrotation
                JOINT rIndex2
                {
                  OFFSET -2.54057 -0.884171 1.56538
                  CHANNELS 3 Zrotation Xrotation Yrotation
                  End Site
                  {
                    OFFSET -1.62519 -0.234802 1.16502
                  }
                }
              }
              JOINT rMid1
              {
                OFFSET -8.24714 1.18213 3.41376
                CHANNELS 3 Zrotation Xrotation Yrotation
                JOINT rMid2
                {
                  OFFSET -3.10165 -0.590103 1.0647
                  CHANNELS 3 Zrotation Xrotation Yrotation
                  End Site
                  {
                    OFFSET -2.48547 -0.328903 0.83742
                  }
                }
              }
              JOINT rRing1
              {
                OFFSET -8.82822 0.546677 1.51678
                CHANNELS 3 Zrotation Xrotation Yrotation
                JOINT rRing2
                {
                  OFFSET -2.60934 -0.819778 -0.0198488
                  CHANNELS 3 Zrotation Xrotation Yrotation
                  End Site
                  {
                    OFFSET -2.33842 -0.294052 0.168128
                  }
                }
              }
              JOINT rPinky1
              {
                OFFSET -8.27202 -0.0477905 -0.4584
                CHANNELS 3 Zrotation Xrotation Yrotation
                JOINT rPinky2
                {
                  OFFSET -1.82734 -0.647385 -0.700984
                  CHANNELS 3 Zrotation Xrotation Yrotation
                  End Site
                  {
                    OFFSET -1.69225 -0.51767 -0.607171
                  }
                }
              }
            }
          }
        }
      }
      JOINT lCollar
      {
        OFFSET 2.68224 19.2634 -4.8768
        CHANNELS 3 Zrotation Xrotation Yrotation
        JOINT lShldr
        {
          OFFSET 8.77824 -1.95073 1.46304
          CHANNELS 3 Zrotation Xrotation Yrotation
          JOINT lForeArm
          {
            OFFSET 28.1742 -1.7115 0.48768
            CHANNELS 3 Zrotation Xrotation Yrotation
            JOINT lHand
            {
              OFFSET 22.5879 0.773209 7.07136
              CHANNELS 3 Zrotation Xrotation Yrotation
              JOINT lThumb1
              {
                OFFSET 1.2192 -0.487915 3.41376
                CHANNELS 3 Zrotation Xrotation Yrotation
                JOINT lThumb2
                {
                  OFFSET 3.37035 -0.52449 3.41376
                  CHANNELS 3 Zrotation Xrotation Yrotation
                  End Site
                  {
                    OFFSET 1.78271 -1.18214 1.43049
                  }
                }
              }
              JOINT lIndex1
              {
                OFFSET 7.75947 0.938293 5.60832
                CHANNELS 3 Zrotation Xrotation Yrotation
                JOINT lIndex2
                {
                  OFFSET 2.54057 -0.884171 1.56538
                  CHANNELS 3 Zrotation Xrotation Yrotation
                  End Site
                  {
                    OFFSET 1.62519 -0.234802 1.16502
                  }
                }
              }
              JOINT lMid1
              {
                OFFSET 8.24714 1.18213 3.41376
                CHANNELS 3 Zrotation Xrotation Yrotation
                JOINT lMid2
                {
                  OFFSET 3.10165 -0.590103 1.0647
                  CHANNELS 3 Zrotation Xrotation Yrotation
                  End Site
                  {
                    OFFSET 2.48547 -0.328903 0.83742
                  }
                }
              }
              JOINT lRing1
              {
                OFFSET 8.82822 0.546677 1.51678
                CHANNELS 3 Zrotation Xrotation Yrotation
                JOINT lRing2
                {
                  OFFSET 2.60934 -0.819778 -0.0198488
                  CHANNELS 3 Zrotation Xrotation Yrotation
                  End Site
                  {
                    OFFSET 2.33842 -0.294052 0.168128
                  }
                }
              }
              JOINT lPinky1
              {
                OFFSET 8.27202 -0.0477905 -0.4584
                CHANNELS 3 Zrotation Xrotation Yrotation
                JOINT lPinky2
                {
                  OFFSET 1.82734 -0.647385 -0.700984
                  CHANNELS 3 Zrotation Xrotation Yrotation
                  End Site
                  {
                    OFFSET 1.69225 -0.51767 -0.607171
                  }
                }
              }
            }
          }
        }
      }
    }
  }
  JOINT rButtock
  {
    OFFSET -8.77824 4.35084 1.2192
    CHANNELS 3 Zrotation Xrotation Yrotation
    JOINT rThigh
    {
      OFFSET 0 -1.70687 -2.19456
      CHANNELS 3 Zrotation Xrotation Yrotation
      JOINT rShin
      {
        OFFSET 0 -36.8199 0.73152
        CHANNELS 3 Zrotation Xrotation Yrotation
        JOINT rFoot
        {
          OFFSET 0.73152 -45.1104 -5.12064
          CHANNELS 3 Zrotation Xrotation Yrotation
          End Site
          {
            OFFSET -1.1221 -3.69964 12.103
          }
        }
      }
    }
  }
  JOINT lButtock
  {
    OFFSET 8.77824 4.35084 1.2192
    CHANNELS 3 Zrotation Xrotation Yrotation
    JOINT lThigh
    {
      OFFSET 0 -1.70687 -2.19456
      CHANNELS 3 Zrotation Xrotation Yrotation
      JOINT lShin
      {
        OFFSET 0 -36.8199 0.73152
        CHANNELS 3 Zrotation Xrotation Yrotation
        JOINT lFoot
        {
          OFFSET -0.73152 -45.1104 -5.12064
          CHANNELS 3 Zrotation Xrotation Yrotation
          End Site
          {
            OFFSET 1.1221 -3.69964 12.103
          }
        }
      }
    }
  }
}
MOTION
Frames:	8
Frame Time:	0.03333
-30.2238 53.5473 38.6115 -47.840574 -72.780121 46.117262 3.158694 13.190142 152.563069 -9.167497 3.819595 -143.407344 -12.901582 30.342295 -96.835274 39.962377 20.54413 106.13676 22.991483 5.784652 27.902625 -44.291544 0.261787 -0.643224 -43.651178 64.81657 45.259656 -106.205559 -19.367491 154.940477 88.659139 -50.099715 -86.437598 -59.708921 49.837282 42.066199 140.699344 -51.67235 79.126617 -137.776704 6.986157 78.733727 -76.348559 -84.906335 -135.794022 -56.105736 38.244002 64.67559 -173.559901 -0.967847 154.443728 -59.383431 84.176026 24.215875 -8.638757 -4.064585 1.223212 -143.300798 -42.145655 -167.97398 -33.857185 -43.877933 -8.157364 -17.270336 -16.054182 -36.754037 153.486975 -21.70593 -167.784683 100.085013 -21.453297 120.718051 -92.52924 60.154271 124.497196 -161.060558 -11.488821 -155.690795 4.398674 1.329361 -5.964399 23.089577 33.847422 -13.512914 134.297058 -13.173936 -116.015685 -17.219042 30.567034 -5.522897 -0.283449 -0.010057 -2.650082 2.467501 33.060316 -7.600462 -1.562128 -1.063359 2.320075 -71.302971 -65.178941 -44.936094 150.481049 16.189933 141.941873 -24.059934 39.345474 32.145174 0.146772 -2.734943 3.073025 -13.884466 5.399133 -0.0 -1.37192 49.724019 -52.887129 106.028949 -1.439234 6.986143 25.868402 12.381364 13.918803 29.813736 -74.336322 29.04163 -21.629732 71.906742 116.053122 -136.020231 -42.468658 108.94041
-29.2194 53.37539999999999 38.812400000000004 -48.552286 -72.871613 47.126265 4.34572 17.657769 -14.064719 8.574174 -10.576472 23.723521 -13.465996 27.679687 -80.076661 40.274468 10.139553 93.256794 28.900473 7.826974 29.73493 -38.009136 -2.443051 7.08533 -10.207881 35.021686 9.968679 75.061711 27.325393 -8.985522 -170.788383 23.553114 27.14579 -146.478686 33.762991 128.237719 -166.062026 -1.651789 97.595618 -29.187653 -12.688234 22.293758 -140.836864 -49.608847 149.773422 -28.942523 59.203373 41.299873 -179.265585 -65.452118 160.284962 -42.296623 -66.735143 -76.092434 -32.850358 55.662875 38.891394 -47.348521 80.897925 71.113797 -21.423163 -23.411626 4.492987 -116.908546 -6.439003 -115.84145 147.352798 22.822097 -156.55386 -117.047144 33.894675 123.133767 164.480442 3.456817 -129.513951 -64.570516 -58.237547 -64.387141 178.300439 -14.347218 -84.966351 60.852759 -19.698417 -20.037303 -79.51872 -67.927661 -19.98291 -12.05196 -11.543599 -17.249547 167.293239 -28.395434 -143.338941 44.757119 59.004095 -33.168519 -0.97234 8.77912 -0.155956 -98.783739 -70.700118 -71.656514 134.807463 -15.465571 130.747839 110.777073 -8.422864 104.745696 -113.491559 65.028816 -49.492034 94.280786 59.129663 0.0 -53.796245 21.867168 -52.889378 28.69662 -12.518239 96.501356 14.55934 9.651165 7.909435 59.593937 -68.260955 58.100262 10.424997 73.723896 79.133737 -146.575562 -18.354472 93.116621
-28.2445 53.256 38.7352 -48.872286 -72.383964 48.383077 3.745706 11.579303 -180.0 -7.162707 6.791999 -170.419757 -13.488134 24.251761 -69.623789 37.81513 4.013815 85.592602 39.685366 6.881296 18.918136 -31.95875 -4.598447 15.963066 -14.548048 42.535268 14.763243 75.070562 13.971264 -0.826248 -14.412071 -26.11943 108.105895 -4.937375 -68.898765 -13.693896 118.873484 -57.426995 60.589806 -173.795234 -25.858557 101.247603 -39.00332 57.890301 32.439784 -77.200285 54.292858 38.205363 -160.772532 34.9718 140.023245 139.743429 -59.035708 135.495595 -80.64301 62.382464 87.793939 -138.232242 9.027622 163.210487 -11.330545 41.866318 26.214093 16.568519 -19.842943 -3.988968 -3.496872 0.447565 1.340621 -1.04017 -1.869815 -74.032211 -69.957297 -84.327868 -82.799334 47.294933 81.488266 -44.769626 162.274449 -1.674635 -86.056526 1.808673 -39.661393 -35.767178 147.212499 -38.633041 -118.907835 44.568924 38.208304 -58.760117 -5.664473 -13.522389 1.288373 -159.754103 -77.280164 -123.63416 0.413892 0.67934 4.717978 165.511394 -50.60931 -145.916611 -2.277428 -0.844549 2.801908 13.18819 37.227167 -48.056077 95.373606 60.38477 53.366216 -109.995542 69.385285 -159.373716 -54.627049 -13.632883 -111.796562 79.403213 19.942634 167.991553 171.824297 69.629298 5.004107 -146.415371 -10.309255 -180.0 -5.880079 -76.280981 74.049716 140.996039 61.148277 -78.731393
-27.3069 52.8706 38.5527 -50.303433 -72.391328 50.636786 1.28317 13.688692 74.258902 -6.156852 -12.529721 -65.277696 1.257308 15.172855 32.270582 -12.788312 -22.211492 -18.124208 44.701975 6.222954 15.062299 -22.85172 -3.726614 18.288613 2.329288 -33.865252 -6.012402 97.032868 34.400511 -83.102482 -172.776182 7.170122 30.699179 -147.650728 31.81974 127.411589 -10.794261 14.198971 -3.796554 28.951425 -67.076986 -12.21583 14.899353 -48.732819 -28.956946 -177.534439 -40.569562 90.015505 -5.850258 -26.239233 -9.099438 99.765527 -76.063298 41.805481 -13.502817 10.058818 16.23253 -127.463626 -34.549344 -165.939445 -153.973931 23.367057 -158.545941 -5.072494 -0.730704 20.286961 -3.331846 2.679978 0.675561 0.829802 -4.058808 -72.643769 -148.976839 72.743023 -163.151824 -130.932179 -52.95465 -130.228847 -173.150442 -22.486514 -84.795747 135.546962 10.081853 -47.068791 48.857175 39.585576 -56.682942 44.877266 -78.793005 104.192417 124.816919 49.921452 -115.793608 163.502858 -6.907942 -140.250162 144.958194 -8.909573 169.273463 53.629693 -48.793484 65.444127 -9.721748 1.645359 0.682991 98.033939 -81.116339 83.41055 97.493876 61.51105 52.87138 -109.248643 73.103748 -71.524729 -27.845712 47.725297 -120.47721 28.226922 11.413468 122.324362 -166.540867 70.174521 -10.514455 -153.456886 -7.217749 91.488456 69.957492 -6.460675 -89.912828 86.21256 -21.391911 -29.280481
-26.390400000000003 52.4034 38.3791 -51.894689 -72.426001 52.817393 2.278487 10.412888 145.41191 -11.975065 -0.543593 -136.524519 -11.566038 18.941748 -46.735296 31.55838 -8.291618 68.205337 43.968055 5.771595 14.235095 -14.593075 -2.537021 19.623191 2.508429 -33.591267 -4.678215 9.839351 -3.646699 -60.991591 88.384721 85.699211 28.326965 -10.841953 -38.850101 -10.239625 1.935064 -1.127397 -7.314997 0.533861 -32.1488 -13.743068 -152.039154 -75.676641 149.687285 -148.318203 -34.814434 122.005845 -3.980512 -26.349993 -6.772979 -128.52519 15.332135 139.123694 -74.532963 -84.68035 -81.241192 -161.391569 -22.686015 -162.624959 -150.530709 2.899713 -152.470594 -66.858963 72.077814 91.170008 1.648505 25.415969 -5.907515 78.538097 16.698347 -63.539461 -103.689159 55.549018 116.403386 -171.250301 12.803071 -164.173001 179.826148 -16.277407 -86.442001 -23.121598 -60.199787 -45.553807 -153.380975 -70.044215 -78.681217 -87.661628 -28.954035 -51.276209 -0.854036 0.084405 1.095361 25.926844 51.566631 -22.340376 -0.050837 25.278279 1.105757 166.645853 -32.805275 -142.710937 -9.565877 -10.634981 3.033956 58.037219 -78.831098 40.172712 -35.136669 5.71176 -24.804093 17.323458 7.98988 91.713269 44.727865 4.496525 4.670655 -112.591583 -49.670034 173.784157 -12.521613 5.35641 -6.509368 98.23233 -49.484077 -83.723377 -53.668483 -70.012195 30.279751 0.948589 -15.89655 90.559202
-25.4712 51.9822 38.2966 -53.462671 -72.512925 54.763751 3.030018 9.571961 162.3424 -11.219508 2.450157 -153.586235 -12.447303 25.764238 -86.922107 36.89219 13.790514 103.434765 39.074291 5.0022 14.035083 -8.649168 -1.568309 20.518 -13.644028 33.960503 13.653626 -86.807223 -42.9584 -165.051673 9.7155 -45.567889 -142.667921 -141.935531 37.668989 121.347022 -88.96151 45.408871 51.163361 28.159549 -38.719209 5.359377 22.342162 -77.378461 -26.699507 18.436967 20.360208 0.115371 -2.799983 -23.395621 -4.954413 10.364693 32.690404 12.172332 -55.656611 -84.031256 -62.404482 163.762653 64.956085 -158.49608 -22.962884 -44.994195 -10.900267 -42.596091 -19.944757 -40.390305 46.419277 66.596847 -52.741111 -130.39294 -8.442429 -166.516675 -93.000048 -54.271343 -71.643579 -168.997516 4.794994 -163.96176 120.840659 28.133586 -69.945424 21.609533 -11.606701 -54.833664 119.993962 0.870664 -110.306277 -63.824124 -10.541243 8.643195 86.235464 62.600271 -78.018937 -164.916046 -63.567265 -130.796143 17.451763 -38.937861 28.840037 5.210614 77.224278 -51.940566 7.422773 -39.76537 21.279268 91.235641 -83.57373 86.941278 0.015912 -0.351499 2.59204 -14.450875 7.1117 -89.046999 -50.53839 5.73453 -63.714519 64.19027 -40.556233 149.432354 176.396572 71.114762 -0.0 -145.393828 -10.076695 7.651734 36.415455 75.407767 -140.219808 65.281234 82.199746 4.014046
-24.5274 51.647 38.3363 -54.767803 -72.613222 56.320946 3.349874 13.706745 13.195783 7.487975 -11.956421 -3.745808 7.734326 18.183292 62.885353 -27.21218 -8.846137 -46.105252 31.216434 3.555808 12.680499 -5.000289 -0.929247 21.042726 -158.808001 -5.407024 159.680504 78.107577 -35.238295 115.931937 111.716092 63.960012 95.035588 -107.615515 53.727483 87.060538 179.703341 -22.41414 95.837471 7.235138 -47.310227 9.267653 -5.496155 18.865524 -4.650309 -6.338222 9.464381 11.740087 -10.113225 6.664906 0.279658 32.005625 -23.418267 12.418581 -131.070476 45.619184 141.629848 -120.844269 49.912387 132.863683 -150.293938 26.335713 -157.851585 -26.279354 60.116158 62.642519 154.822867 -30.146777 -167.477327 -85.44407 37.45381 54.075419 -170.715416 -23.290154 -125.015364 -123.031687 -56.946687 -125.364661 -83.405988 -47.631628 -34.841767 53.14332 14.938408 15.743819 124.190348 -3.257097 -111.140395 12.116006 49.291405 -46.302356 127.568188 51.371089 -117.313007 -169.04908 -60.650247 -136.228148 148.47062 4.586327 169.513898 6.92262 9.463984 30.417496 128.942041 12.421584 146.297466 -25.19565 -5.09661 15.650401 -172.481211 74.732134 -7.790552 117.272938 71.625055 -116.070428 -10.090056 -48.567701 41.779328 42.178759 59.368957 64.963811 144.412882 69.222191 21.599756 -134.081883 -16.757252 -86.907862 -75.649721 22.21409 142.565381 -175.529613 -66.2554 61.547833
-23.4481 51.46190000000001 38.474000000000004 -57.636498 -73.143004 59.254676 3.968404 13.261538 -0.0 9.283058 -9.428259 9.619821 7.905376 17.549181 54.688485 -25.44776 -12.278296 -39.034897 25.117458 2.248569 10.06897 -0.971521 -0.147046 17.213112 -2.735952 -1.465556 1.561849 -122.851372 11.261095 -139.125118 106.486564 -52.536361 -125.511508 -21.271817 2.730276 1.397333 -3.559819 6.687671 -5.347651 28.45361 -66.116156 -19.312074 -76.301236 53.321499 63.742336 -14.692502 19.481191 -0.713093 -40.562837 51.533408 27.794826 -175.229648 -17.701551 128.613868 -77.55536 -82.876324 -84.900337 -3.893094 -3.73001 -20.545187 -25.884765 79.482413 59.213319 -15.58788 -52.604301 -34.410867 155.909772 -30.321448 -166.602739 163.201768 35.276535 130.40486 23.574378 -18.300425 6.94419 0.390836 33.472136 -15.832445 166.461111 -3.515392 -86.801511 15.949724 -42.158798 -30.918673 -149.4811 -68.240457 -77.64351 85.233777 16.677079 -46.383063 0.544993 0.25716 1.73076 -170.712294 -56.065959 -132.885953 2.06145 0.574675 11.374054 -8.393962 29.797002 -31.902139 2.186628 -33.933364 12.302452 127.814708 63.163025 -161.190978 172.043866 73.926779 5.253357 122.374313 71.727631 -154.397947 12.627449 -46.171976 -34.390121 -114.793141 -15.918872 -176.475053 -1.104425 3.951891 1.493051 84.125769 -56.333438 83.705404 58.750445 67.950456 18.267482 -149.140017 -8.197789 80.521695
